<?xml version="1.0" standalone="no"?>
<!DOCTYPE svg PUBLIC "-//W3C//DTD SVG 20010904//EN"
 "http://www.w3.org/TR/2001/REC-SVG-20010904/DTD/svg10.dtd">
<svg version="1.0" xmlns="http://www.w3.org/2000/svg"
 width="500.000000pt" height="500.000000pt" viewBox="0 0 500.000000 500.000000"
 preserveAspectRatio="xMidYMid meet">

<g transform="translate(0.000000,500.000000) scale(0.100000,-0.100000)"
fill="#000000" stroke="none">
<path d="M2374 3724 c-259 -154 -522 -310 -664 -394 -158 -94 -486 -289 -591
-352 -69 -40 -82 -58 -68 -96 8 -20 21 -26 56 -25 6 0 71 36 145 80 114 69
501 298 763 453 44 26 159 95 255 152 257 154 231 144 293 110 29 -15 104 -60
167 -98 139 -85 471 -283 710 -424 96 -57 236 -140 310 -184 74 -45 143 -84
154 -89 40 -16 84 42 58 79 -4 6 -113 73 -242 149 -129 76 -298 177 -375 223
-77 47 -156 94 -175 105 -101 58 -482 284 -526 312 -47 30 -129 75 -137 75 -2
0 -62 -34 -133 -76z"/>
<path d="M2391 3404 c-97 -35 -166 -106 -193 -198 -19 -61 -15 -239 5 -315 26
-96 87 -216 156 -309 52 -70 60 -86 50 -99 -15 -18 -99 -76 -103 -71 -2 1 -17
25 -35 51 -89 131 -229 261 -346 320 -183 92 -372 79 -468 -33 -80 -94 -106
-255 -57 -355 48 -100 150 -171 285 -200 140 -29 348 -12 496 41 38 14 73 22
78 19 13 -8 44 -103 38 -118 -3 -7 -29 -19 -58 -26 -192 -49 -404 -187 -500
-328 -75 -109 -92 -243 -43 -341 54 -108 175 -182 300 -183 103 -1 158 23 240
105 66 67 104 128 142 231 28 77 52 229 52 335 l0 110 73 0 72 0 1 -118 c3
-301 125 -560 302 -639 75 -33 186 -32 260 2 80 37 138 89 169 154 39 79 40
191 2 271 -57 120 -174 232 -328 313 -90 48 -218 97 -252 97 -27 0 -30 13 -14
66 25 81 22 80 111 49 98 -34 224 -55 328 -55 213 0 368 69 444 199 24 41 27
55 27 141 -1 83 -4 102 -29 150 -80 159 -230 212 -426 150 -139 -45 -315 -183
-415 -325 -26 -38 -52 -74 -56 -79 -12 -13 -121 72 -112 87 4 7 28 39 54 72
61 79 111 171 145 270 25 72 28 94 29 215 0 117 -3 141 -21 181 -52 112 -144
171 -278 176 -56 2 -94 -2 -125 -13z m169 -95 c57 -13 104 -49 132 -102 32
-61 32 -213 0 -311 -32 -95 -81 -189 -138 -265 l-48 -64 -41 45 c-109 120
-195 356 -180 493 10 92 36 140 98 180 50 32 107 40 177 24z m-744 -591 c71
-26 165 -88 237 -156 72 -69 161 -192 148 -205 -16 -16 -122 -47 -216 -64
-220 -38 -422 19 -483 137 -19 37 -23 56 -19 105 13 178 148 252 333 183z
m1589 10 c59 -30 99 -87 116 -167 24 -114 -48 -213 -187 -256 -73 -23 -199
-29 -295 -16 -107 16 -239 59 -239 78 0 44 154 212 259 283 129 86 267 117
346 78z m-831 -359 c39 -29 72 -52 72 -53 1 -1 -10 -38 -25 -84 l-27 -83 -93
-2 -93 -1 -25 83 c-13 46 -22 85 -21 87 8 8 133 103 137 103 2 1 35 -22 75
-50z m-244 -433 c0 -163 -44 -323 -120 -440 -62 -95 -110 -128 -191 -134 -76
-6 -135 16 -187 68 -134 134 -35 350 227 497 69 39 212 93 249 93 21 0 22 -4
22 -84z m476 55 c114 -40 213 -101 300 -183 99 -94 128 -152 122 -247 -3 -59
-8 -76 -34 -108 -66 -84 -191 -116 -281 -72 -80 39 -162 161 -203 305 -25 87
-43 235 -34 291 8 53 17 54 130 14z"/>
<path d="M948 2345 c-8 -18 -9 -35 -2 -53 8 -23 15 -27 49 -27 34 0 41 4 49
27 16 44 -6 78 -49 78 -28 0 -38 -5 -47 -25z"/>
<path d="M3989 2189 c-50 -19 -63 -85 -24 -124 34 -35 86 -34 114 1 36 45 20
105 -32 124 -16 5 -30 10 -31 9 -1 0 -13 -5 -27 -10z"/>
<path d="M782 2168 c-7 -7 -12 -25 -12 -40 0 -34 30 -54 145 -99 162 -63 374
-89 566 -71 141 14 159 21 159 62 0 44 -33 62 -90 48 -72 -17 -312 -14 -414 6
-92 18 -232 65 -272 91 -28 18 -66 19 -82 3z"/>
<path d="M3317 2002 c-20 -22 -22 -53 -5 -70 7 -7 42 -12 88 -12 211 0 491
-83 637 -189 24 -17 54 -31 67 -31 28 0 56 24 56 47 0 52 -228 178 -406 223
-199 51 -406 66 -437 32z"/>
<path d="M1241 1804 c-12 -15 -21 -37 -21 -49 0 -12 9 -34 21 -49 16 -20 29
-26 59 -26 30 0 43 6 59 26 12 15 21 37 21 49 0 12 -9 34 -21 49 -16 20 -29
26 -59 26 -30 0 -43 -6 -59 -26z"/>
<path d="M3652 1758 c-31 -31 -5 -98 38 -98 50 0 75 44 50 91 -12 22 -68 27
-88 7z"/>
</g>
</svg>
